# xmcd
#
# Track frame offsets:
#	150
#	33430
#	71590
#	101293
#	128141
#	175566
#	212700
#	246070
#
# Disc length: 3837 seconds
#
# Revision: 1
# Processed by: cddbd v1.5.2PL0 Copyright (c) Steve Scherf et al.
# Submitted via: audiograbber 1.83.01
#
DISCID=630efb08
DTITLE=Grateful Dead - 80-11-26 Sportatorium, Pembroke Pines FL
DYEAR=1900
DGENRE=
TTITLE0=Cold Rain and Snow
TTITLE1=Samson and Delilah
TTITLE2=China Cat Sunflower
TTITLE3=I Know You Rider
TTITLE4=Estimated Prophet
TTITLE5=Eyes Of The World
TTITLE6=Space
TTITLE7=Drums
EXTD=
EXTT0=
EXTT1=
EXTT2=
EXTT3=
EXTT4=
EXTT5=
EXTT6=
EXTT7=
PLAYORDER=
